<?xml version="1.0" encoding="UTF-8"?>
<svg xmlns="http://www.w3.org/2000/svg" xmlns:xlink="http://www.w3.org/1999/xlink" width="144pt" height="144pt" viewBox="0 0 144 144" version="1.1">
<g id="surface675276">
<path style=" stroke:none;fill-rule:nonzero;fill:rgb(27.843137%,72.941176%,52.941176%);fill-opacity:1;" d="M 130.804688 0 L 13.195312 0 C 6 0 0 6 0 13.195312 L 0 130.804688 C 0 138 6 144 13.195312 144 L 72 144 L 72 84 L 54 84 L 54 66 L 72 66 L 72 48 C 72 33 78 24 96 24 L 114 24 L 114 42 L 106.195312 42 C 100.804688 42 96 46.804688 96 52.195312 L 96 66 L 120 66 L 117 84 L 96 84 L 96 144 L 130.804688 144 C 138 144 144 138 144 130.804688 L 144 13.195312 C 144 6 138 0 130.804688 0 Z M 130.804688 0 "/>
</g>
</svg>
