<?xml version="1.0" encoding="UTF-8"?>
<svg xmlns="http://www.w3.org/2000/svg" xmlns:xlink="http://www.w3.org/1999/xlink" width="144pt" height="144pt" viewBox="0 0 144 144" version="1.1">
<g id="surface617759">
<path style=" stroke:none;fill-rule:nonzero;fill:rgb(27.843137%,72.941176%,52.941176%);fill-opacity:1;" d="M 126 135 L 99 113.996094 L 102 123 L 30 123 C 21.71875 123 15 116.285156 15 108 L 15 30 C 15 21.714844 21.71875 15 30 15 L 111 15 C 119.285156 15 126 21.714844 126 30 Z M 126 135 "/>
<path style=" stroke:none;fill-rule:nonzero;fill:rgb(100%,100%,100%);fill-opacity:1;" d="M 97.769531 48.71875 C 97.769531 48.71875 89.96875 42.691406 80.730469 42 L 79.921875 43.648438 C 88.261719 45.660156 92.070312 48.570312 96.058594 52.140625 C 89.191406 48.628906 82.378906 45 70.5 45 C 58.621094 45 51.808594 48.628906 44.941406 52.140625 C 48.929688 48.570312 53.488281 45.328125 61.078125 43.648438 L 60.269531 42 C 50.578125 42.929688 43.230469 48.71875 43.230469 48.71875 C 43.230469 48.71875 34.5 61.289062 33 85.859375 C 41.820312 95.941406 55.171875 96 55.171875 96 L 57.929688 92.308594 C 53.21875 90.691406 47.851562 87.78125 43.230469 82.5 C 48.75 86.640625 57.058594 90 70.5 90 C 83.941406 90 92.25 86.640625 97.769531 82.5 C 93.148438 87.78125 87.78125 90.691406 83.070312 92.308594 L 85.828125 96 C 85.828125 96 99.179688 95.941406 108 85.859375 C 106.5 61.289062 97.769531 48.71875 97.769531 48.71875 Z M 60 81 C 56.699219 81 54 77.640625 54 73.5 C 54 69.359375 56.699219 66 60 66 C 63.300781 66 66 69.359375 66 73.5 C 66 77.640625 63.300781 81 60 81 Z M 81 81 C 77.699219 81 75 77.640625 75 73.5 C 75 69.359375 77.699219 66 81 66 C 84.300781 66 87 69.359375 87 73.5 C 87 77.640625 84.300781 81 81 81 Z M 81 81 "/>
</g>
</svg>
