<?xml version="1.0" encoding="UTF-8"?>
<svg xmlns="http://www.w3.org/2000/svg" xmlns:xlink="http://www.w3.org/1999/xlink" width="250pt" height="250pt" viewBox="0 0 250 250" version="1.1">
<g id="surface633680">
<path style=" stroke:none;fill-rule:nonzero;fill:rgb(27.843137%,72.941176%,52.941176%);fill-opacity:1;" d="M 226.367188 11.621094 C 225.429688 10.585938 224.082031 10 222.675781 10 L 27.324219 10 C 25.917969 10 24.570312 10.585938 23.632812 11.621094 C 22.675781 12.65625 22.207031 14.042969 22.34375 15.449219 L 39.941406 212.578125 C 40.117188 214.648438 41.5625 216.367188 43.554688 216.953125 L 123.613281 239.804688 C 124.042969 239.941406 124.511719 240 124.980469 240 C 125.449219 240 125.898438 239.941406 126.347656 239.804688 L 206.464844 216.953125 C 208.457031 216.367188 209.882812 214.648438 210.078125 212.578125 L 227.65625 15.449219 C 227.792969 14.042969 227.324219 12.65625 226.367188 11.621094 Z M 184.238281 79.589844 L 90.175781 79.589844 L 92.421875 105.039062 L 181.972656 105.039062 L 175.253906 180.253906 L 124.960938 195.449219 L 124.472656 195.292969 L 74.765625 180.234375 L 72.050781 149.589844 L 96.40625 149.589844 L 97.460938 161.484375 L 125.253906 167.304688 L 152.539062 161.484375 L 155.449219 129.296875 L 70.234375 129.296875 L 63.613281 55.273438 L 186.40625 55.273438 Z M 184.238281 79.589844 "/>
</g>
</svg>
